<svg id="Componente_15_1" data-name="Componente 15 – 1" xmlns="http://www.w3.org/2000/svg" width="80" height="80" viewBox="0 0 80 80">
  <path id="Trazado_12" data-name="Trazado 12" d="M16.41,0H63.59A16.41,16.41,0,0,1,80,16.41V63.59A16.41,16.41,0,0,1,63.59,80H16.41A16.41,16.41,0,0,1,0,63.59V16.41A16.62,16.62,0,0,1,2.1,8.379,16.289,16.289,0,0,1,16.41,0Z" fill="#001833"/>
  <path id="Icon_simple-adobephotoshop" data-name="Icon simple-adobephotoshop" d="M19.333,18.717c0-.223.467-.387.747-.387,2.147-.11,5.293-.167,8.593-.167,9.24,0,12.833,5.067,12.833,11.553,0,8.467-6.14,12.1-13.673,12.1-1.267,0-1.7-.057-2.583-.057V54.567c0,.277-.11.387-.383.387H19.72c-.277,0-.383-.1-.383-.377V18.717ZM25.25,36.423c.767.053,1.373.053,2.7.053,3.9,0,7.567-1.373,7.567-6.653,0-4.233-2.62-6.38-7.073-6.38-1.32,0-2.583.053-3.19.11v12.88Zm28.69-3.96c-2.64,0-3.52,1.32-3.52,2.42,0,1.21.6,2.033,4.123,3.85,5.227,2.533,6.873,4.95,6.873,8.523,0,5.333-4.067,8.2-9.567,8.2a14.563,14.563,0,0,1-6.833-1.433c-.217-.11-.267-.273-.267-.55v-4.89c0-.333.16-.443.38-.28a12.28,12.28,0,0,0,6.707,1.98c2.64,0,3.74-1.1,3.74-2.587,0-1.21-.767-2.257-4.123-4.017-4.733-2.267-6.713-4.567-6.713-8.423,0-4.29,3.353-7.867,9.183-7.867a15.537,15.537,0,0,1,5.98.933.727.727,0,0,1,.333.66V33.55c0,.277-.167.443-.5.333a11.937,11.937,0,0,0-5.81-1.433Z" transform="translate(-0.375 3.19)" fill="#2da9ff"/>
</svg>
