<svg xmlns="http://www.w3.org/2000/svg" width="80" height="78.001" viewBox="0 0 80 78.001">
  <path id="Icon_awesome-github" data-name="Icon awesome-github" d="M26.758,63.369c0,.323-.371.581-.839.581-.532.048-.9-.21-.9-.581,0-.323.371-.581.839-.581C26.339,62.74,26.758,63,26.758,63.369Zm-5.016-.726c-.113.323.21.694.694.79a.757.757,0,0,0,1-.323c.1-.323-.21-.694-.694-.839A.828.828,0,0,0,21.742,62.643Zm7.129-.274c-.468.113-.79.419-.742.79.048.323.468.532.952.419.468-.113.79-.419.742-.742C29.774,62.53,29.339,62.321,28.871,62.369ZM39.484.563C17.113.563,0,17.546,0,39.917A40.437,40.437,0,0,0,27.339,78.5c2.065.371,2.79-.9,2.79-1.952,0-1-.048-6.516-.048-9.9,0,0-11.29,2.419-13.661-4.806,0,0-1.839-4.694-4.484-5.9,0,0-3.694-2.532.258-2.484a8.514,8.514,0,0,1,6.226,4.161c3.532,6.226,9.452,4.435,11.758,3.371a8.964,8.964,0,0,1,2.581-5.435c-9.016-1-18.113-2.306-18.113-17.823,0-4.435,1.226-6.661,3.806-9.5a15.239,15.239,0,0,1,.419-10.952C22.242,16.224,30,21.627,30,21.627a38.1,38.1,0,0,1,20.258,0s7.758-5.419,11.129-4.355a15.232,15.232,0,0,1,.419,10.952c2.581,2.855,4.161,5.081,4.161,9.5,0,15.565-9.5,16.806-18.516,17.823,1.484,1.274,2.742,3.694,2.742,7.484,0,5.435-.048,12.161-.048,13.484,0,1.048.742,2.323,2.79,1.952C69.065,73.111,80,57.8,80,39.917,80,17.546,61.855.563,39.484.563ZM15.677,56.192c-.21.161-.161.532.113.839.258.258.629.371.839.161.21-.161.161-.532-.113-.839C16.258,56.095,15.887,55.982,15.677,56.192Zm-1.742-1.306c-.113.21.048.468.371.629A.48.48,0,0,0,15,55.4c.113-.21-.048-.468-.371-.629C14.306,54.675,14.048,54.724,13.935,54.885Zm5.226,5.742c-.258.21-.161.694.21,1,.371.371.839.419,1.048.161.21-.21.113-.694-.21-1C19.855,60.417,19.371,60.369,19.161,60.627Zm-1.839-2.371c-.258.161-.258.581,0,.952s.694.532.9.371a.736.736,0,0,0,0-1C18,58.208,17.581,58.046,17.323,58.256Z" transform="translate(0 -0.563)"/>
</svg>
