<svg id="Componente_9_1" data-name="Componente 9 – 1" xmlns="http://www.w3.org/2000/svg" width="80" height="80" viewBox="0 0 80 80">
  <g id="Rectángulo_27" data-name="Rectángulo 27" transform="translate(8.353 12)" stroke="#707070" stroke-width="1">
    <rect width="69" height="65" stroke="none"/>
    <rect x="0.5" y="0.5" width="68" height="64" fill="none"/>
  </g>
  <path id="Icon_awesome-js-square" data-name="Icon awesome-js-square" d="M71.429,2.25H8.571A8.574,8.574,0,0,0,0,10.821V73.679A8.574,8.574,0,0,0,8.571,82.25H71.429A8.574,8.574,0,0,0,80,73.679V10.821A8.574,8.574,0,0,0,71.429,2.25ZM43.536,64.643c0,7.786-4.571,11.339-11.232,11.339-6.018,0-9.5-3.107-11.286-6.875l6.125-3.7c1.179,2.089,2.25,3.857,4.839,3.857,2.464,0,4.036-.964,4.036-4.732V38.982h7.518ZM61.321,75.982c-6.982,0-11.5-3.321-13.7-7.679l6.125-3.536c1.607,2.625,3.714,4.571,7.411,4.571,3.107,0,5.107-1.554,5.107-3.714,0-2.571-2.036-3.482-5.482-5l-1.875-.8c-5.429-2.3-9.018-5.214-9.018-11.339,0-5.643,4.3-9.929,11-9.929,4.786,0,8.214,1.661,10.679,6.018l-5.857,3.75c-1.286-2.3-2.679-3.214-4.839-3.214a3.263,3.263,0,0,0-3.589,3.214c0,2.25,1.393,3.161,4.625,4.571l1.875.8c6.393,2.732,9.982,5.536,9.982,11.821,0,6.75-5.321,10.464-12.446,10.464Z" transform="translate(0 -2.25)" fill="#f7df1e"/>
</svg>
