<svg xmlns="http://www.w3.org/2000/svg" width="80" height="71.178" viewBox="0 0 80 71.178">
  <path id="Icon_simple-react" data-name="Icon simple-react" d="M40,30.443a7.13,7.13,0,1,0,7.13,7.13A7.13,7.13,0,0,0,40,30.443ZM20.027,51.757l-1.573-.4C6.727,48.393,0,43.363,0,37.56s6.727-10.833,18.453-13.8l1.573-.4.443,1.56a78.434,78.434,0,0,0,4.543,11.927l.337.71-.337.71A77.688,77.688,0,0,0,20.47,50.2Zm-2.3-24.35C8.81,29.91,3.34,33.74,3.34,37.56s5.47,7.647,14.383,10.153a83.167,83.167,0,0,1,3.94-10.153,82.506,82.506,0,0,1-3.94-10.153Zm42.25,24.35-.443-1.563A77.856,77.856,0,0,0,54.983,38.27l-.337-.71.337-.71A78.067,78.067,0,0,0,59.53,24.923l.443-1.56,1.577.4C73.273,26.723,80,31.753,80,37.56s-6.727,10.833-18.45,13.8Zm-1.637-14.2a82.42,82.42,0,0,1,3.94,10.153C71.193,45.207,76.66,41.377,76.66,37.56s-5.47-7.647-14.383-10.153a82.626,82.626,0,0,1-3.94,10.153ZM17.7,27.39l-.443-1.557C13.96,14.213,14.96,5.887,20,2.98,24.943.127,32.88,3.5,41.2,12.033L42.33,13.2,41.2,14.36a78.507,78.507,0,0,0-8.073,9.89l-.45.643-.783.067a78.857,78.857,0,0,0-12.617,2.033Zm6.32-22.1a4.651,4.651,0,0,0-2.35.577c-3.313,1.91-3.9,8.55-1.617,17.51a83.74,83.74,0,0,1,10.777-1.67,82.822,82.822,0,0,1,6.84-8.48C32.47,8.163,27.547,5.29,24.02,5.29ZM55.983,73.163h0c-4.75,0-10.85-3.577-17.18-10.077L37.67,61.923,38.8,60.76a78.432,78.432,0,0,0,8.07-9.893l.45-.643.78-.067a78.767,78.767,0,0,0,12.623-2.03l1.573-.4.447,1.56C66.037,60.9,65.04,69.233,60,72.137a7.933,7.933,0,0,1-4.017,1.027ZM42.33,61.893c5.2,5.063,10.123,7.937,13.65,7.937h0a4.638,4.638,0,0,0,2.347-.577c3.313-1.91,3.9-8.553,1.617-17.513a83.4,83.4,0,0,1-10.78,1.67,82.244,82.244,0,0,1-6.837,8.483ZM62.3,27.39l-1.573-.4A78.262,78.262,0,0,0,48.1,24.96l-.78-.067-.45-.643a78.048,78.048,0,0,0-8.07-9.89L37.67,13.2,38.8,12.033C47.117,3.5,55.05.13,60,2.98c5.04,2.907,6.04,11.233,2.747,22.85ZM49.167,21.707a83.129,83.129,0,0,1,10.78,1.67c2.287-8.96,1.7-15.6-1.617-17.51-3.293-1.9-9.483,1.013-16,7.36a82.83,82.83,0,0,1,6.837,8.48ZM24.02,73.163A7.933,7.933,0,0,1,20,72.137c-5.04-2.9-6.04-11.23-2.743-22.847l.44-1.56,1.573.4a78.678,78.678,0,0,0,12.617,2.03l.783.067.447.643A78.654,78.654,0,0,0,41.19,60.76l1.133,1.163L41.19,63.087c-6.327,6.5-12.427,10.077-17.17,10.077ZM20.053,51.74c-2.287,8.96-1.7,15.6,1.617,17.513,3.29,1.877,9.477-1.017,16-7.36a83.325,83.325,0,0,1-6.84-8.483,83.251,83.251,0,0,1-10.777-1.67ZM40,53.833c-2.743,0-5.563-.12-8.387-.353l-.783-.067-.45-.643q-2.4-3.442-4.5-7.073T21.993,38.27l-.333-.71.333-.71q1.788-3.792,3.887-7.427c1.38-2.387,2.9-4.767,4.5-7.073l.45-.643.783-.067a99.283,99.283,0,0,1,16.777,0l.78.067.447.643a100.02,100.02,0,0,1,8.39,14.5l.337.71-.337.71a98.667,98.667,0,0,1-8.39,14.5l-.447.643-.78.067C45.567,53.713,42.743,53.833,40,53.833ZM32.677,50.22a96.815,96.815,0,0,0,14.65,0,96.686,96.686,0,0,0,7.32-12.66A95.284,95.284,0,0,0,47.323,24.9a96.771,96.771,0,0,0-14.647,0,94.924,94.924,0,0,0-7.323,12.66,97.048,97.048,0,0,0,7.323,12.66Z" transform="translate(0 -1.986)" fill="#61dafb"/>
</svg>
