<svg xmlns="http://www.w3.org/2000/svg" width="80" height="79.998" viewBox="0 0 80 79.998">
  <path id="Icon_awesome-git-alt" data-name="Icon awesome-git-alt" d="M78.491,38.687,43.571,3.759a5.155,5.155,0,0,0-7.287,0l-7.261,7.255,9.2,9.2a6.121,6.121,0,0,1,7.748,7.8l8.868,8.868A6.132,6.132,0,0,1,61.173,47c-4.73,4.73-12.537-.513-10-6.668L42.9,32.071V53.83c4.518,2.239,3.975,7.473,1.621,9.821a6.128,6.128,0,1,1-6.661-10V31.687a6.125,6.125,0,0,1-3.329-8.036l-9.07-9.08L1.509,38.525a5.154,5.154,0,0,0,0,7.287L36.439,80.74a5.154,5.154,0,0,0,7.286,0L78.491,45.974a5.154,5.154,0,0,0,0-7.287Z" transform="translate(0 -2.25)" fill="#f34f29"/>
</svg>
