<svg id="Componente_14_1" data-name="Componente 14 – 1" xmlns="http://www.w3.org/2000/svg" width="80" height="80" viewBox="0 0 80 80">
  <path id="Trazado_10" data-name="Trazado 10" d="M16.41,0H63.59A16.41,16.41,0,0,1,80,16.41V63.59A16.41,16.41,0,0,1,63.59,80H16.41A16.41,16.41,0,0,1,0,63.59V16.41A16.62,16.62,0,0,1,2.1,8.379,16.289,16.289,0,0,1,16.41,0Z" fill="#470137"/>
  <path id="Icon_simple-adobexd" data-name="Icon simple-adobexd" d="M31.633,36.95l9.333,17.933c.167.267.067.533-.2.533h-5.8a.654.654,0,0,1-.7-.433c-2.133-4.4-4.3-8.8-6.533-13.533h-.067c-2,4.467-4.2,9.167-6.333,13.567a.64.64,0,0,1-.6.367h-5.5c-.333,0-.367-.267-.2-.467l9.133-17.4-8.833-17.6a.269.269,0,0,1,.2-.467h5.733a.525.525,0,0,1,.6.367c2.1,4.4,4.233,8.933,6.233,13.367h.067c1.933-4.4,4.067-8.967,6.133-13.333.167-.267.267-.433.6-.433h5.367c.267,0,.367.2.2.467ZM42.6,42.383c0-7.767,5.167-13.833,13.367-13.833a14.782,14.782,0,0,1,1.733.067V19.783a.334.334,0,0,1,.333-.333H63.3c.267,0,.333.1.333.267v30.6a23.742,23.742,0,0,0,.167,3.267c0,.2-.067.267-.267.367A19.856,19.856,0,0,1,55,55.883C47.767,55.917,42.6,51.45,42.6,42.383ZM57.7,33.85a5.041,5.041,0,0,0-1.933-.333c-4.2,0-7.133,3.233-7.133,8.6,0,6.133,3,8.6,6.767,8.6a6.289,6.289,0,0,0,2.3-.367V33.85Z" transform="translate(0.632 2.35)" fill="#ff61f6"/>
</svg>
