<svg id="Tazita.svg" xmlns="http://www.w3.org/2000/svg" width="486" height="537" viewBox="0 0 486 537">
  <defs>
    <style>
      .cls-1, .cls-3 {
        fill: #b4be2c;
      }

      .cls-2 {
        fill: #575252;
      }

      .cls-2, .cls-3 {
        fill-rule: evenodd;
      }

      .cls-4 {
        font-size: 113.761px;
        fill: #fff;
        font-family: Rockwell;
        font-weight: 700;
      }
    </style>
  </defs>
  <circle id="Elipse_1" data-name="Elipse 1" class="cls-1" cx="243" cy="243" r="243"/>
  <path id="Rectángulo_1" data-name="Rectángulo 1" class="cls-2" d="M83.99,321.62l294.787,36.195s-3.949,32.783-44.223,27.838L120.163,359.33C79.965,354.394,83.99,321.62,83.99,321.62Z"/>
  <path id="Forma_1" data-name="Forma 1" class="cls-2" d="M124.4,259.811s5.029,31.035,35.9,35.741S292.586,311.8,292.586,311.8s31.593-1.067,36.553-42.511c0,0,84.35,19.159,93.722-57.17,8.791-71.6-77.194-76.981-77.194-76.981L151.38,111.785s-9.182-.332-10.082,7.877C136.9,159.777,124.4,259.811,124.4,259.811Z"/>
  <path id="Forma_3" data-name="Forma 3" class="cls-3" d="M355.71,167.865l-8.8,71.653s45.336,8.125,50.077-30.487S355.71,167.865,355.71,167.865Z"/>
  <text id="FAFE" class="cls-4" transform="translate(48.033 537.15) scale(1.326 1.319)">FAFE</text>
</svg>
